<svg xmlns="http://www.w3.org/2000/svg" viewBox="0 0 32 32" fill="none">
  <rect width="32" height="32" rx="7" fill="#050505"/>
  <defs>
    <linearGradient id="g" x1="6" y1="4" x2="26" y2="28" gradientUnits="userSpaceOnUse">
      <stop stop-color="#5B9DFF"/>
      <stop offset="1" stop-color="#FF5C7A"/>
    </linearGradient>
  </defs>
  <g transform="translate(4 3) scale(1)">
    <path
      d="M12 2c5.2 3.8 9.2 10 10.4 17.5-3.4 1.4-7.1 2.1-10.4 2.1S4.6 21 1.2 19.5C2.4 12 6.4 5.8 12 2Z"
      fill="url(#g)"
    />
    <path
      d="M6.2 18.8c-1.3 1.1-1.8 4.2-1.8 4.2s3.2-.4 4.2-1.8c.6-.7.6-1.8-.1-2.5-.7-.7-1.8-.7-2.3 0Z"
      fill="#5B9DFF"
    />
    <path
      d="M17.8 18.8c1.3 1.1 1.8 4.2 1.8 4.2s-3.2-.4-4.2-1.8c-.6-.7-.6-1.8.1-2.5.7-.7 1.8-.7 2.3 0Z"
      fill="#FF5C7A"
    />
    <circle cx="12" cy="11.5" r="2.4" fill="#050505" stroke="#E8F4FF" stroke-width="1.2"/>
    <path
      d="M12 20.5v4.5M9.5 23h5"
      stroke="#5B9DFF"
      stroke-width="1.4"
      stroke-linecap="round"
    />
  </g>
</svg>
